#!OML:ASF E:\emotionWalksFemale\Project 1\Capture day 1\Session 1\Female1.ASF
:FULLY-SPECIFIED
:DEGREES
344
root 7.55543 14.8085 20.8779 217.889 72.1186 -500.865
lowerback 10.6398 1.25488 -2.67447
upperback -2.50515 1.28323 -0.305935
thorax -8.70875 0.753656 0.950415
lowerneck -3.00977 -5.64408 -10.3928
upperneck 1.70794 -7.54143 16.2231
head 2.04447 -3.52174 6.39252
rclavicle 1.87355e-014 -1.74931e-014
rhumerus -51.9846 10.4798 -71.2013
rradius 62.4705
rwrist -13.1627
rhand 6.09205 -58.4681
rfingers 7.12502
rthumb 31.411 -85.7904
lclavicle 1.87355e-014 -1.74931e-014
lhumerus 1.33816 -8.79439 74.9747
lradius 35.8465
lwrist -26.2259
lhand 8.66344 -48.1681
lfingers 7.12502
lthumb 33.8576 -21.3528
rfemur -16.7946 -18.3318 33.2069
rtibia 46.7501
rfoot -12.1858 -12.7407
rtoes -35.0609
lfemur -21.1821 -14.9594 -13.4528
ltibia 53.4858
lfoot -27.4861 6.68055
ltoes -29.044
345
root 7.5046 14.658 20.8932 213.804 70.2555 -505.633
lowerback 11.0869 1.27661 -2.77846
upperback -2.39942 1.28597 -0.281426
thorax -8.85709 0.761108 1.02757
lowerneck -2.95827 -6.64285 -11.1275
upperneck 0.285955 -8.7421 16.8167
head 1.8539 -4.14218 6.64708
rclavicle 5.17834e-014 -1.43125e-014
rhumerus -49.9771 9.97555 -69.1478
rradius 60.5071
rwrist -12.8706
rhand 4.8697 -59.7311
rfingers 7.12502
rthumb 30.2457 -87.2736
lclavicle 5.17834e-014 -1.43125e-014
lhumerus 2.14277 -6.00947 74.7075
lradius 35.5698
lwrist -25.8105
lhand 9.35664 -48.0186
lfingers 7.12502
lthumb 34.5159 -21.3509
rfemur -18.7657 -19.1013 33.296
rtibia 49.1244
rfoot -16.5553 -13.0985
rtoes -27.4202
lfemur -22.7891 -15.6042 -13.2602
ltibia 54.3773
lfoot -31.2966 6.12502
ltoes -27.2104
346
root 7.46304 14.5082 20.9097 210.483 68.5687 -509.285
lowerback 11.6763 1.24583 -3.05123
upperback -2.15085 1.19791 -0.166548
thorax -8.93439 0.734233 1.31348
lowerneck -2.57805 -7.45707 -12.0933
upperneck -1.39924 -9.67831 17.5999
head 1.53425 -4.64518 7.03133
rclavicle 1.18277e-014 -1.27222e-014
rhumerus -47.7516 9.89367 -67.2707
rradius 58.5485
rwrist -12.6638
rhand 4.10276 -61.0404
rfingers 7.12502
rthumb 29.5138 -88.7146
lclavicle 1.18277e-014 -1.27222e-014
lhumerus 2.35736 -9.44158 71.6936
lradius 36.3247
lwrist -18.8409
lhand 9.61612 -45.5743
lfingers 7.12502
lthumb 34.7622 -18.963
rfemur -20.1691 -19.7903 33.4506
rtibia 51.1452
rfoot -18.8671 -15.3413
rtoes -26.9324
lfemur -24.1938 -15.8661 -13.4705
ltibia 55.9499
lfoot -33.5796 8.33586
ltoes -36.2227
347
root 7.41409 14.3733 20.9282 207.718 67.0753 -512.225
lowerback 12.5082 1.27348 -3.43306
upperback -1.85091 1.16305 -0.0318889
thorax -9.09984 0.740255 1.67014
lowerneck -1.95786 -8.14015 -12.99
upperneck -3.35873 -10.4186 18.5107
head 1.09077 -5.06014 7.47819
rclavicle 9.93923e-015 1.74931e-014
rhumerus -45.4516 9.13064 -65.3183
rradius 56.4057
rwrist -11.5336
rhand 3.36011 -61.9692
rfingers 7.12502
rthumb 28.8046 -89.7664
lclavicle 9.93923e-015 1.74931e-014
lhumerus 2.52648 -7.0875 71.0304
lradius 35.9077
lwrist -18.629
lhand 9.32452 -44.7335
lfingers 7.12502
lthumb 34.4854 -18.0588
rfemur -21.265 -20.8066 33.855
rtibia 52.7898
rfoot -17.0813 -20.9904
rtoes -37.132
lfemur -26.2377 -16.1936 -13.7078
ltibia 58.2206
lfoot -34.904 6.44945
ltoes -33.7592
348
root 7.34378 14.2074 20.9595 205.569 65.7066 -514.641
lowerback 13.4912 1.34969 -3.8239
upperback -1.59116 1.18033 0.101966
thorax -9.39778 0.77511 2.01938
lowerneck -1.42291 -8.7662 -13.709
upperneck -5.27556 -11.0735 19.2562
head 0.656306 -5.42549 7.85434
rclavicle -4.05521e-014 -7.95139e-015
rhumerus -43.1932 7.68777 -63.3596
rradius 54.5183
rwrist -9.7467
rhand 2.17678 -62.8365
rfingers 7.12502
rthumb 27.6736 -269.179
lclavicle -4.05521e-014 -7.95139e-015
lhumerus 2.83381 -4.38048 70.5274
lradius 34.9938
lwrist -19.7074
lhand 9.29177 -44.5044
lfingers 7.12502
lthumb 34.4543 -17.8227
rfemur -22.9708 -21.0566 34.2852
rtibia 54.7317
rfoot -15.8142 -24.9164
rtoes -39.5809
lfemur -28.8195 -16.18 -13.8031
ltibia 60.9417
lfoot -35.2445 4.79353
ltoes -32.8181
349
root 7.27554 14.0776 20.9956 203.922 64.475 -516.441
lowerback 14.4844 1.34171 -4.14829
upperback -1.26555 1.09987 0.299735
thorax -9.61903 0.76096 2.4245
lowerneck -1.32474 -9.2814 -14.4028
upperneck -6.6557 -11.6037 19.6916
head 0.413116 -5.69569 8.10821
rclavicle -3.1408e-014 -1.27222e-014
rhumerus -40.7385 7.12055 -62.2475
rradius 53.1842
rwrist -10.5125
rhand -3.5161 -64.2791
rfingers 7.12502
rthumb 22.2186 -266.978
lclavicle -3.1408e-014 -1.27222e-014
lhumerus 2.99154 -0.676062 70.0204
lradius 33.7898
lwrist -22.0485
lhand 10.3441 -45.2486
lfingers 7.12502
lthumb 35.4526 -18.7994
rfemur -24.6197 -20.6757 34.6783
rtibia 56.753
rfoot -17.7427 -26.8753
rtoes -35.3995
lfemur -31.0643 -15.9715 -13.7939
ltibia 63.4417
lfoot -35.3562 3.35641
ltoes -32.8295
350
root 7.21392 13.9571 21.0272 202.433 63.5271 -517.959
lowerback 15.3317 1.33559 -4.37847
upperback -0.841006 1.03733 0.382191
thorax -9.63913 0.743514 2.65256
lowerneck -0.946648 -9.70357 -15.0261
upperneck -8.49273 -11.9608 20.3537
head -0.0139 -5.89324 8.46895
rclavicle 5.50634e-014 -1.59028e-015
rhumerus -38.4603 6.32914 -61.2462
rradius 52.2763
rwrist -10.3669
rhand -5.18642 -66.1115
rfingers 7.12502
rthumb 20.6143 -264.963
lclavicle 5.50634e-014 -1.59028e-015
lhumerus 2.80779 2.372 69.1654
lradius 32.7735
lwrist -23.2863
lhand 10.805 -44.609
lfingers 7.12502
lthumb 35.8895 -18.2654
rfemur -26.113 -20.0951 34.9124
rtibia 58.8794
rfoot -20.9648 -28.0622
rtoes -27.1487
lfemur -32.8048 -15.2714 -13.9208
ltibia 65.4875
lfoot -35.577 1.00142
ltoes -31.5251
351
root 7.16331 13.8769 21.0656 201.567 63.2857 -518.755
lowerback 16.0665 1.73862 -4.66696
upperback -0.374104 1.49949 0.291925
thorax -9.58639 0.973752 2.60041
lowerneck -0.601219 -10.2524 -15.1077
upperneck -10.2653 -12.4834 20.8127
head -0.433495 -6.17543 8.6682
rclavicle 3.20043e-014 -3.18055e-015
rhumerus -36.3966 5.288 -60.4446
rradius 51.5768
rwrist -9.4449
rhand -5.22784 -67.517
rfingers 7.12502
rthumb 20.5745 -263.553
lclavicle 3.20043e-014 -3.18055e-015
lhumerus 3.08933 5.26998 68.2958
lradius 31.2417
lwrist -25.1169
lhand 11.5372 -44.4916
lfingers 7.12502
lthumb 36.5828 -18.3204
rfemur -27.2212 -19.0152 35.2118
rtibia 60.5688
rfoot -23.5687 -29.1322
rtoes -17.3429
lfemur -33.7198 -15.7506 -14.0453
ltibia 66.8616
lfoot -35.7672 -0.295845
ltoes -28.0957
352
root 7.11792 13.836 21.0886 201.014 63.1246 -519.321
lowerback 16.7043 2.17372 -4.69988
upperback -0.0229156 2.04762 0.161959
thorax -9.60167 1.23361 2.33193
lowerneck -0.511832 -10.8284 -14.9588
upperneck -11.4453 -13.1041 20.9194
head -0.671778 -6.4903 8.67843
rclavicle -2.66371e-014 1.11319e-014
rhumerus -34.5827 2.81759 -59.3462
rradius 51.0513
rwrist -6.23779
rhand -6.10404 -68.844
rfingers 7.12502
rthumb 19.7323 -262.138
lclavicle -2.66371e-014 1.11319e-014
lhumerus 3.4681 8.06881 67.4757
lradius 29.2881
lwrist -27.1055
lhand 12.23 -44.2706
lfingers 7.12502
lthumb 37.2382 -18.2681
rfemur -28.1612 -18.1558 35.6209
rtibia 61.7087
rfoot -25.8986 -30.2909
rtoes -7.11327
lfemur -34.501 -14.1138 -14.1688
ltibia 67.6894
lfoot -36.1636 -2.2886
ltoes -27.2865
353
root 7.08427 13.8104 21.0957 200.123 63.2053 -520.26
lowerback 17.1392 2.49144 -5.03569
upperback 0.258747 2.39187 0.090458
thorax -9.57481 1.41159 2.34879
lowerneck -0.521746 -11.1807 -15.0185
upperneck -12.1345 -13.4962 20.8489
head -0.798775 -6.67654 8.66094
rclavicle 5.96354e-015 1.43125e-014
rhumerus -32.7756 2.59599 -59.509
rradius 51.806
rwrist -7.65688
rhand -8.08135 -70.1965
rfingers 7.12502
rthumb 17.8306 -260.601
lclavicle 5.96354e-015 1.43125e-014
lhumerus 3.1321 11.2463 66.531
lradius 27.508
lwrist -29.5102
lhand 12.4723 -43.6621
lfingers 7.12502
lthumb 37.4673 -17.7199
rfemur -28.8034 -17.503 35.7097
rtibia 62.3953
rfoot -27.8409 -31.492
rtoes 1.59305
lfemur -34.8315 -12.5563 -14.6995
ltibia 68.0398
lfoot -36.6197 -3.49442
ltoes -28.4737
354
root 7.05613 13.8143 21.1099 199.479 63.5178 -521.151
lowerback 17.3642 2.76759 -5.59561
upperback 0.437672 2.6396 0.0170546
thorax -9.54749 1.55342 2.51736
lowerneck -0.593379 -11.4731 -15.1624
upperneck -12.7524 -13.7925 21.0139
head -0.882718 -6.81332 8.7317
rclavicle 3.85642e-014 -1.59028e-014
rhumerus -30.8407 2.75995 -59.9409
rradius 52.7798
rwrist -8.73561
rhand -9.86836 -71.2395
rfingers 7.12502
rthumb 16.1104 -259.41
lclavicle 3.85642e-014 -1.59028e-014
lhumerus 2.29754 14.8108 65.383
lradius 26.0173
lwrist -32.6005
lhand 12.4818 -41.989
lfingers 7.12502
lthumb 37.4763 -16.0492
rfemur -29.4463 -16.6902 35.8058
rtibia 62.7035
rfoot -29.7774 -32.1644
rtoes 10.079
lfemur -35.0737 -10.9474 -15.2338
ltibia 67.9857
lfoot -36.8741 -4.49767
ltoes -29.1263
355
root 7.02302 13.826 21.1303 199.517 63.686 -521.43
lowerback 17.7076 2.94694 -5.79279
upperback 0.470778 2.81108 -0.0724803
thorax -9.72471 1.64593 2.47396
lowerneck -0.91195 -11.7434 -14.9548
upperneck -13.0631 -14.0714 20.92
head -0.894076 -6.93343 8.63775
rclavicle 4.13472e-014 -1.59028e-015
rhumerus -29.4828 4.59258 -60.8016
rradius 54.5958
rwrist -10.9364
rhand -11.5673 -72.1773
rfingers 7.12502
rthumb 14.474 -258.348
lclavicle 4.13472e-014 -1.59028e-015
lhumerus 1.24236 18.0039 63.9119
lradius 24.7367
lwrist -36.0397
lhand 13.4614 -42.2689
lfingers 7.12502
lthumb 38.4015 -16.58
rfemur -30.1987 -15.8109 36.3238
rtibia 62.7788
rfoot -31.6213 -32.7608
rtoes 17.1702
lfemur -35.4975 -9.62193 -15.3543
ltibia 67.7558
lfoot -36.8392 -4.96436
ltoes -29.9406
356
root 6.98876 13.8385 21.1401 199.362 63.8814 -521.879
lowerback 18.102 3.02162 -5.86808
upperback 0.424174 2.85165 -0.238575
thorax -9.99683 1.67068 2.30744
lowerneck -1.0128 -11.8982 -14.903
upperneck -13.3061 -14.2245 21.0254
head -0.912638 -7.00547 8.65272
rclavicle 1.11319e-014 7.95139e-015
rhumerus -28.0883 4.99464 -61.593
rradius 55.9608
rwrist -10.6171
rhand -9.86576 -71.5476
rfingers 7.12502
rthumb 16.1129 -259.102
lclavicle 1.11319e-014 7.95139e-015
lhumerus -0.311283 20.6712 62.1083
lradius 23.8758
lwrist -39.6161
lhand 14.3075 -41.505
lfingers 7.12502
lthumb 39.1994 -16.0423
rfemur -30.8901 -15.0224 36.6274
rtibia 62.7361
rfoot -32.4697 -33.7476
rtoes 21.1705
lfemur -35.8084 -8.76889 -15.571
ltibia 67.4289
lfoot -36.4528 -6.43084
ltoes -25.5744
357
root 6.95886 13.8521 21.1397 198.782 64.2435 -522.861
lowerback 18.2432 3.11748 -6.06893
upperback 0.364403 2.8993 -0.510251
thorax -10.143 1.69973 2.10242
lowerneck -0.733407 -11.9709 -15.01
upperneck -13.793 -14.2731 21.3207
head -1.04941 -7.04718 8.79848
rclavicle -5.48646e-014 -1.11319e-014
rhumerus -26.4449 3.65472 -62.1784
rradius 56.3427
rwrist -7.10894
rhand -4.40305 -68.5582
rfingers 7.12502
rthumb 21.3669 -262.6
lclavicle -5.48646e-014 -1.11319e-014
lhumerus -2.16503 22.6003 60.2336
lradius 23.5263
lwrist -42.7776
lhand 15.2405 -40.575
lfingers 7.12502
lthumb 40.078 -15.3725
rfemur -31.6107 -14.1735 36.418
rtibia 62.7207
rfoot -33.0173 -34.5911
rtoes 24.5547
lfemur -36.0699 -7.99413 -16.1184
ltibia 67.0747
lfoot -36.0665 -7.98903
ltoes -19.4543
